<?xml version="1.0" encoding="UTF-8" ?>
<!DOCTYPE svg PUBLIC "-//W3C//DTD SVG 1.1//EN" "http://www.w3.org/Graphics/SVG/1.1/DTD/svg11.dtd">
<svg width="100%" height="100%" viewBox="0 0 412 109" version="1.1" xmlns="http://www.w3.org/2000/svg">
	<title>Mafstat</title>
	<g id="logo" stroke="none" stroke-width="1" fill="none" fill-rule="evenodd">
		<path fill="#fff" opacity="1.00" d=" M 207.36 1.42 C 216.11 -1.00 226.10 2.08 231.85 9.15 C 236.01 14.20 238.41 21.21 236.85 27.70 C 232.33 27.69 227.81 27.73 223.30 27.69 C 222.87 25.42 222.91 23.06 222.14 20.88 C 220.76 17.64 217.66 14.87 213.99 14.92 C 208.52 14.38 203.99 19.78 204.26 25.00 C 204.33 27.29 203.88 29.83 205.15 31.87 C 211.44 42.02 221.71 48.77 228.64 58.40 C 233.24 64.70 237.42 71.97 237.34 80.00 C 237.48 84.57 237.46 89.33 235.61 93.61 C 232.44 101.60 224.60 107.47 216.04 108.25 C 208.26 109.14 200.13 105.85 195.23 99.74 C 190.97 94.68 189.23 87.77 190.22 81.27 C 194.71 81.33 199.20 81.28 203.70 81.32 C 204.13 83.58 204.09 85.95 204.86 88.14 C 206.38 91.61 210.07 94.16 213.94 93.80 C 218.29 93.79 222.18 90.13 222.76 85.87 C 223.33 81.86 222.93 77.63 221.19 73.94 C 217.87 66.68 212.36 60.76 206.61 55.37 C 200.50 49.70 194.95 43.25 191.31 35.70 C 189.46 32.07 190.05 27.86 189.98 23.93 C 189.85 13.62 197.50 4.09 207.36 1.42 Z" />
		<path fill="#fff" opacity="1.00" d=" M 132.22 3.31 C 146.40 3.39 160.59 3.30 174.77 3.35 C 175.74 5.40 175.22 7.80 175.38 10.00 C 175.21 12.53 175.83 15.26 174.87 17.66 C 165.24 17.92 155.56 17.24 145.96 17.95 C 145.38 21.94 145.75 25.99 145.68 30.00 C 145.75 34.37 145.40 38.76 145.93 43.12 C 153.19 43.70 160.50 43.15 167.78 43.32 C 168.72 48.02 168.59 52.98 167.86 57.71 C 160.56 57.87 153.22 57.29 145.93 57.94 C 145.19 64.61 145.96 71.32 145.99 78.00 C 145.91 84.68 146.51 91.34 146.35 98.01 C 146.19 100.88 146.83 103.92 145.78 106.66 C 141.30 106.71 136.81 106.67 132.33 106.71 C 132.27 97.81 132.40 88.91 132.31 80.01 C 131.69 67.34 132.18 54.66 131.96 41.98 C 131.41 32.00 131.80 22.00 131.66 12.00 C 131.68 9.10 131.41 6.13 132.22 3.31 Z" />
		<path fill="#fff" opacity="1.00" d=" M 248.31 3.27 C 266.78 3.38 285.26 3.40 303.74 3.27 C 304.17 7.86 304.09 12.48 303.89 17.08 C 297.04 17.72 290.14 17.18 283.27 17.28 C 283.11 18.50 283.02 19.73 283.00 20.96 C 282.92 49.32 283.13 77.69 282.90 106.05 C 278.33 106.52 273.67 106.54 269.10 106.05 C 268.80 76.68 269.22 47.28 268.89 17.91 C 262.05 17.29 255.16 17.82 248.31 17.72 C 248.30 12.90 248.30 8.09 248.31 3.27 Z" />
		<path fill="#fff" opacity="1.00" d=" M 356.33 3.31 C 374.88 3.25 393.45 3.57 412.00 3.17 L 412.00 17.23 C 405.09 17.52 398.18 17.22 391.28 17.31 C 390.78 21.19 391.02 25.11 390.99 29.00 C 391.01 51.33 390.99 73.67 391.00 96.00 C 390.99 99.33 391.16 102.68 390.87 106.01 C 386.32 106.57 381.68 106.58 377.13 106.02 C 376.83 102.69 377.01 99.34 377.00 96.00 C 377.02 73.33 376.99 50.67 377.01 28.00 C 377.00 24.65 377.17 21.28 376.87 17.94 C 370.05 17.18 363.17 17.93 356.33 17.68 C 356.25 12.90 356.25 8.10 356.33 3.31 Z" />
		<path fill="#fff" opacity="1.00" d=" M 0.93 3.98 C 5.11 3.60 9.55 3.10 13.61 4.32 C 17.35 18.09 20.62 31.98 24.18 45.80 C 25.16 49.35 25.70 53.06 27.14 56.46 L 27.71 56.80 C 30.78 42.83 34.81 29.09 38.25 15.21 C 39.26 11.50 39.93 7.69 41.20 4.05 C 45.64 3.38 50.29 3.35 54.70 4.22 C 54.74 20.48 54.40 36.75 55.01 53.00 C 54.99 63.00 54.88 73.00 55.34 83.00 C 55.13 90.68 55.73 98.41 55.03 106.07 C 50.16 106.48 45.14 106.75 40.31 105.82 C 40.48 91.20 40.21 76.58 39.90 61.97 C 38.68 62.52 38.64 64.07 38.14 65.15 C 34.77 75.39 31.46 85.66 27.83 95.82 C 27.48 95.77 26.77 95.68 26.42 95.63 C 23.34 86.10 20.06 76.63 17.00 67.09 C 16.42 65.70 16.44 63.82 15.09 62.91 C 15.03 77.51 15.90 92.11 15.69 106.72 C 10.88 106.65 6.07 106.66 1.26 106.73 C 0.54 95.17 1.45 83.55 0.71 71.99 C 0.62 51.99 0.70 31.99 0.64 12.00 C 0.63 9.32 0.52 6.63 0.93 3.98 Z" />
		<path fill="#fff" opacity="1.00" d=" M 86.36 4.23 C 90.41 3.24 94.70 3.55 98.82 3.91 C 100.01 5.61 99.78 7.89 100.24 9.85 C 104.98 36.42 109.76 62.99 114.44 89.58 C 115.33 95.06 116.80 100.48 117.03 106.04 C 112.44 106.61 107.77 106.47 103.17 106.15 C 101.99 104.13 102.05 101.65 101.54 99.41 C 98.62 83.68 95.86 67.90 92.92 52.17 L 92.10 52.12 C 90.42 63.49 88.59 74.83 87.10 86.22 C 85.59 92.72 85.27 99.42 83.84 105.93 C 79.25 106.78 74.49 106.36 69.84 106.14 C 69.63 104.45 69.86 102.75 70.12 101.09 C 75.63 68.82 81.00 36.52 86.36 4.23 Z" />
		<path fill="#fff" opacity="1.00" d=" M 324.36 4.22 C 328.42 3.26 332.69 3.56 336.82 3.90 C 337.99 5.62 337.79 7.88 338.24 9.85 C 342.92 36.14 347.68 62.43 352.28 88.74 C 353.23 94.50 354.75 100.20 355.04 106.04 C 350.44 106.59 345.77 106.48 341.16 106.16 C 340.01 104.12 340.04 101.66 339.54 99.41 C 336.61 83.68 333.87 67.90 330.91 52.17 L 330.09 52.12 C 328.43 63.49 326.58 74.83 325.11 86.22 C 323.58 92.72 323.26 99.42 321.85 105.92 C 317.26 106.80 312.49 106.35 307.85 106.14 C 307.50 103.01 308.38 99.94 308.85 96.87 C 314.08 66.00 319.24 35.11 324.36 4.22 Z" />
	</g>
</svg>
